<?xml version="1.0" encoding="utf-8"?>
<!-- Generator: Adobe Illustrator 25.4.0, SVG Export Plug-In . SVG Version: 6.00 Build 0)  -->
<svg version="1.1" id="Слой_1" xmlns="http://www.w3.org/2000/svg" xmlns:xlink="http://www.w3.org/1999/xlink" x="0px" y="0px"
	 viewBox="0 0 2145.7 267.8" style="enable-background:new 0 0 2145.7 267.8;" xml:space="preserve">
<style type="text/css">
	.st0{clip-path:url(#SVGID_00000127029237949608355630000017919908909484989609_);fill:#142531;}
</style>
<g>
	<defs>
		<rect id="SVGID_1_" width="2145.7" height="267.8"/>
	</defs>
	<clipPath id="SVGID_00000145772399776903697280000007360299001671398076_">
		<use xlink:href="#SVGID_1_"  style="overflow:visible;"/>
	</clipPath>
	<path style="clip-path:url(#SVGID_00000145772399776903697280000007360299001671398076_);fill:#142531;" d="M714.5,262.1
		C698.2,111.1,645,0,581.9,0S465.6,111.1,449.7,262.1h-80.2c-30-90-101.7-153.6-184.5-153.6c-82.8,0-154.9,63.7-185,153.6h236
		c21.9-121.6,84.5-209,157.9-209c73.4,0,136,87.8,157.9,209H714.5z"/>
	<polygon style="clip-path:url(#SVGID_00000145772399776903697280000007360299001671398076_);fill:#142531;" points="876.7,262.5 
		876.7,53.1 974.2,53.1 1045.4,194.5 1045.8,194.5 1115.8,53.1 1214.5,53.1 1214.5,262.5 1143.2,262.5 1143.2,131.7 1142.8,131.7 
		1078.9,262.5 1015.4,262.5 948.4,132.1 948,132.1 948,262.5 	"/>
	<path style="clip-path:url(#SVGID_00000145772399776903697280000007360299001671398076_);fill:#142531;" d="M1228.6,262.5
		l102.1-209.4h87.5l99.6,209.4h-78.1l-15.9-36.4h-101.7l-15.5,36.4H1228.6z M1336.4,183.1h73l-36.1-83L1336.4,183.1z"/>
	
		<rect x="1532.5" y="53.1" style="clip-path:url(#SVGID_00000145772399776903697280000007360299001671398076_);fill:#142531;" width="75.1" height="209.4"/>
	<path style="clip-path:url(#SVGID_00000145772399776903697280000007360299001671398076_);fill:#142531;" d="M1800.7,231.8l-12-20.2
		c-8.6-12.7-21-18.9-35.2-18.9H1711v69.4h-75.5v-209H1808c54.9,0,86.7,24.1,86.7,66.3c0,31.6-21.9,53.6-59.2,60.6v0.4
		c6.9,2.2,13.3,8.3,18,15.8l14.2,21.5c3.9,5.7,9,9.2,17.6,9.2c4.7,0,11.6-2.2,15-6.6l12,31.2c-11.2,9.7-33.9,16.2-52.4,16.2
		C1828.6,268.2,1812.7,249.4,1800.7,231.8 M1711.4,150.1h73.8c21.5,0,33.9-9.7,33.9-25.9c0-16.2-12.5-25.9-33.9-25.9H1711v51.8
		H1711.4z"/>
	<polygon style="clip-path:url(#SVGID_00000145772399776903697280000007360299001671398076_);fill:#142531;" points="1926.4,262.5 
		1926.4,53.1 2142.7,53.1 2142.7,100.5 1999.8,100.5 1999.8,135.7 2131.5,135.7 2131.5,176.5 1999.8,176.5 1999.8,215.1 
		2145.7,215.1 2145.7,262.5 	"/>
</g>
</svg>
