<?xml version="1.0" encoding="utf-8"?>
<!-- Generator: Adobe Illustrator 25.4.0, SVG Export Plug-In . SVG Version: 6.00 Build 0)  -->
<svg version="1.1" id="Layer_2" xmlns="http://www.w3.org/2000/svg" xmlns:xlink="http://www.w3.org/1999/xlink" x="0px" y="0px"
	 viewBox="0 0 554.5 426.7" style="enable-background:new 0 0 554.5 426.7;" xml:space="preserve">
<style type="text/css">
	.st0{fill:#343235;}
	.st1{fill:#00A3CC;}
</style>
<rect x="196.1" y="114.9" transform="matrix(-1 -1.224647e-16 1.224647e-16 -1 433.4468 424.5319)" class="st0" width="41.3" height="194.8"/>
<path class="st0" d="M514.4,114.9H399.3v194.8h41.3v-75.5h72.6v75.5h41.3l-0.1-154.8C554.4,132.8,536.5,114.9,514.4,114.9z
	 M440.6,192.9v-36.7h72.6v36.7H440.6z"/>
<polygon class="st1" points="359.9,0 359.9,234.1 269,117.1 "/>
<polygon class="st1" points="274.9,426.7 274.9,192.6 365.8,309.7 "/>
<path class="st0" d="M41.3,235.3h18.2l55.7,74.4h51.6L111,235.3h4.9h1.3c22.1,0,40-17.9,40-40v-40.4c0-22.1-17.9-40-40-40H0v194.8
	h41.3V235.3z M41.3,156.1h74.6V194H41.3V156.1z"/>
</svg>
