<?xml version="1.0" encoding="utf-8"?>
<!-- Generator: Adobe Illustrator 25.4.0, SVG Export Plug-In . SVG Version: 6.00 Build 0)  -->
<svg version="1.1" id="Слой_1" xmlns="http://www.w3.org/2000/svg" xmlns:xlink="http://www.w3.org/1999/xlink" x="0px" y="0px"
	 viewBox="0 0 948.9 636.5" style="enable-background:new 0 0 948.9 636.5;" xml:space="preserve">
<style type="text/css">
	.st0{clip-path:url(#SVGID_00000013158996104519880220000016961752240646908080_);fill:#231818;}
	.st1{clip-path:url(#SVGID_00000013158996104519880220000016961752240646908080_);fill:#E30315;}
	.st2{clip-path:url(#SVGID_00000013158996104519880220000016961752240646908080_);fill:#E20516;}
	.st3{clip-path:url(#SVGID_00000013158996104519880220000016961752240646908080_);fill:#E00818;}
	.st4{clip-path:url(#SVGID_00000013158996104519880220000016961752240646908080_);fill:#E20415;}
	.st5{clip-path:url(#SVGID_00000013158996104519880220000016961752240646908080_);fill:#211717;}
	.st6{clip-path:url(#SVGID_00000013158996104519880220000016961752240646908080_);fill:#251B1A;}
	.st7{clip-path:url(#SVGID_00000013158996104519880220000016961752240646908080_);fill:#251B1B;}
	.st8{clip-path:url(#SVGID_00000013158996104519880220000016961752240646908080_);fill:#261C1B;}
	.st9{clip-path:url(#SVGID_00000013158996104519880220000016961752240646908080_);fill:#2A2321;}
	.st10{clip-path:url(#SVGID_00000013158996104519880220000016961752240646908080_);fill:#27201E;}
	.st11{clip-path:url(#SVGID_00000013158996104519880220000016961752240646908080_);fill:#D12932;}
	.st12{clip-path:url(#SVGID_00000013158996104519880220000016961752240646908080_);fill:#46413F;}
</style>
<g>
	<defs>
		<rect id="SVGID_1_" width="948.9" height="636.5"/>
	</defs>
	<clipPath id="SVGID_00000159446888830839029500000008019481635471432632_">
		<use xlink:href="#SVGID_1_"  style="overflow:visible;"/>
	</clipPath>
	<path style="clip-path:url(#SVGID_00000159446888830839029500000008019481635471432632_);fill:#231818;" d="M451.9,19.7
		c0,42.2,0.1,84.3,0.1,126.5c0,100.9,0,201.7,0,302.6v4.4h-17.4c-5.2-53.2-10.5-106.6-15.7-160c-0.3,0-0.7,0.1-1,0.1v160h-18.2V36.5
		c5.5-3.3,11.3-6.2,17.7-7.3c5.6,54.8,11.2,109.5,16.7,164.3c0.6-2.8,0.6-5.5,0.6-8.2c0-31,0-61.9,0-92.9c0-23,0.1-46,0.1-68.9
		C440.3,21.2,446,19.9,451.9,19.7"/>
	<path style="clip-path:url(#SVGID_00000159446888830839029500000008019481635471432632_);fill:#E30315;" d="M261.9,491.5
		c13.3,21.1,26.3,42.4,38.9,63.9c-0.1,1.5-0.2,3,1.9,3.2l0,0c-0.1,0.9,0.2,1.6,1.1,1.9l0-0.1c0.4,2.1,0.7,5,3.3,4.6
		c2.4-0.4,1.3-3.3,1.5-5.2c0.1-0.7,0-1.3,0-2c0-21,0.1-42-0.1-63c0-3.9,0.8-5.6,5.2-5.5c11,0.3,22,0.2,33,0c3.8-0.1,5.2,0.9,5.1,5
		c-0.3,11.2-0.1,22.3-0.1,33.5c0,35.1-0.1,70.3-0.1,105.4c-10.3,0-20.6,0-30.9,0c-3.3-1.2-6.7-1.2-10,0c-1,0-1.9,0-2.9-0.1
		c-0.5-1.3-0.5-3.1-2.6-3.2l0.4-0.1l-0.4,0c-0.4-1.7,0.2-4.1-2.6-4.4l0,0c0.1-1.5-0.6-2.5-1.9-3.1l0,0c0.2-2.4-0.9-4-3-5l0,0
		c-0.1-2.2-0.2-4.5-3.1-5l0,0c0.3-2.5-0.9-4.1-3-5l0,0c0.2-1.5-0.6-2.5-1.9-3.1l0,0c0.2-2.4-1-4-3.1-5l0,0c0.3-2.5-0.9-4-3-5l0,0
		c-1.2-5.5-4.2-10-8.4-13.7l0-0.3l0,0.3c-0.5-1.7,0.1-4.1-2.7-4.3l0,0c0.1-1.5,0.2-2.9-1.9-3.1l0,0c-0.1-1,0.4-2.5-1.5-2.4l-0.1-0.2
		c0.7-3.8-2-5.5-4.5-7.4l0,0c0.3-2.5-0.9-4-3-5l0,0c0-1.3,0.2-2.9-1.7-2.9c-1.4,0-1.9,1.2-2.1,2.4c-0.1,1.3-0.1,2.7-0.1,4
		c0,23.7-0.1,47.5-0.1,71.2c-12,0-23.9,0-35.9,0c-0.7-0.9-1.3-0.9-2,0c-1.6,0-3.3,0-4.9-0.1c0-46.5,0-93-0.2-139.5
		c0-3.8,1.5-4.4,4.8-4.3c12,0.1,24,0.1,36,0C258,489.4,260,490.2,261.9,491.5"/>
	<path style="clip-path:url(#SVGID_00000159446888830839029500000008019481635471432632_);fill:#E30315;" d="M367.4,560.2
		c0.6-43.5,34.7-76.3,78.7-75.6c40.7,0.6,73.8,35.7,73.1,77.7c-0.7,42-35.3,74.8-78.2,74.1C400.4,635.8,366.8,601.1,367.4,560.2
		 M442.9,591.8c17.5,0.2,31.6-13.6,31.8-31c0.2-17.4-13.7-31.6-31.1-31.8c-17.4-0.2-31.6,13.6-31.8,31
		C411.6,577.4,425.6,591.7,442.9,591.8"/>
	<path style="clip-path:url(#SVGID_00000159446888830839029500000008019481635471432632_);fill:#E20516;" d="M670.9,560.7
		c0-22.7,0.1-45.3-0.1-68c0-4.1,1.2-4.9,5.1-4.9c36.7,0.1,73.3,0.1,110,0c3.8,0,5.2,0.8,5.1,4.9c-0.4,8.2-0.3,16.3,0,24.5
		c0.1,3.4-1.1,4.1-4.3,4.1c-21.7-0.1-43.3-0.1-65,0c-5.5,0-5.5,0-5.5,5.4c0,3.7,0.2,7.4-0.1,11c-0.3,3.8,1,4.8,4.8,4.8
		c21.2-0.2,42.3-0.1,63.5-0.1c0.8,0,1.7,0.1,2.5,0c2.9-0.4,4.2,0.5,4.1,3.8c-0.2,9-0.2,18,0,27c0.1,2.9-1,3.7-3.7,3.6
		c-7.7-0.1-15.3,0-23,0c-14.5,0-29,0.1-43.5-0.1c-3.4,0-4.8,0.9-4.5,4.4c0.3,4.1,0.3,8.3,0,12.5c-0.3,3.8,0.8,5.1,4.9,5.1
		c21.2-0.2,42.3-0.1,63.5-0.1c7.3,0,6.2-0.7,6.3,6.5c0.1,8.2-0.1,16.3,0.1,24.5c0.1,3.1-0.9,4-3.9,4c-37.3-0.1-74.7-0.1-112,0
		c-3.4,0-4.1-1.1-4.1-4.3C671,606.4,670.9,583.6,670.9,560.7"/>
	<path style="clip-path:url(#SVGID_00000159446888830839029500000008019481635471432632_);fill:#E00818;" d="M451.9,19.7
		c-5.9,0.3-11.6,1.5-17.1,3.8c-6.2,0.9-12.1,2.3-17.4,5.8c-6.4,1.1-12.2,4-17.7,7.3c-4,1.2-7.7,2.9-10.8,5.8
		c-6.4,2.6-12.2,6.4-17.3,11.1c-1.5-0.1-2.4,1-3.4,1.8c-47.3,36.2-74,83.8-79.6,143.2c-2,21.4-0.1,42.6,5.2,63.5
		c0.6,2.6,0.5,4.7-1.1,7c-3.1,4.5-6,9.1-9,13.9c-26-67.2-13.8-177.9,79.3-243.7c91.4-64.6,218.1-47.2,289,39.4
		c71.1,86.9,61.6,210.3-11.6,284.8c-4.2-3-7.6-6.8-11.6-10.7c5.2-6.3,10.8-12.2,15.6-18.7c28.2-37.9,42.2-80.4,39.7-127.6
		c-3.8-71.6-37.2-126.1-98.3-163.1c-36-21.8-75.6-29.9-117.5-26.1C462.7,17.6,457.2,17.7,451.9,19.7"/>
	<path style="clip-path:url(#SVGID_00000159446888830839029500000008019481635471432632_);fill:#E20415;" d="M127.3,528.7
		c-13.5,0.8-26.6,1.5-39.7,2.3c-1.8,0.1-2.6-0.6-3.1-2.4c-3.4-14.4-14-16.7-24.5-16c-2.5,0.2-4.9,0.8-7.1,2c-3.6,2-5.9,5-5.7,9.3
		c0.2,3.9,2.8,6.2,6.2,7.7c7.1,3.1,14.8,4,22.2,5.8c10.2,2.6,20.3,5.1,29.9,9.5c16,7.3,26.1,19,26.6,37.2c0.5,18.4-7.6,32.4-23,42.1
		c-8.2,5.1-17.4,7.5-26.9,8.5c-14.7,1.6-29.2,1.1-43.7-2.2c-21.8-5-33.2-19.5-37.7-40.5c-0.2-1.1-0.3-2.3-0.6-3.4
		c-0.8-2.8,0.1-3.9,3-4c12-0.6,24-1.3,35.9-2.2c3.1-0.2,3.9,1.1,4.5,3.8c3.7,16.5,17,24.4,33.1,19.6c6.4-1.9,10.9-6.8,11.3-12.5
		c0.5-6-2.7-10.9-9.3-14c-5.9-2.7-12.3-4.2-18.6-5.7c-12.7-2.9-25.1-6.6-36.4-13.4c-25.6-15.4-23.3-50-0.8-64.7
		c6.5-4.3,13.6-7.1,21.2-8.3c17.6-2.8,35.2-3.3,52.4,2C115.1,494.8,125.8,508.6,127.3,528.7"/>
	<path style="clip-path:url(#SVGID_00000159446888830839029500000008019481635471432632_);fill:#E20415;" d="M948.9,594
		c-15.1,31.7-51.5,48.8-85.9,40.4c-35.3-8.6-59.3-40.4-58.1-76.9c1.2-35.2,27.6-65.8,62-71.8c40.1-7,71.3,17.2,81.8,41.5
		c-10.9,5.3-21.8,10.7-32.7,16c-6.4,3.1-6.4,3.1-10.7-2.3c-8.4-10.5-22.6-14.6-35.1-10.1c-12.9,4.6-21.2,16.8-20.8,30.5
		c0.4,13.9,9.3,25.3,22.9,29.4c12.4,3.7,26.5-1.1,33.9-12.2c2.5-3.8,4.3-4.1,8.1-2.1c10,5.2,20.3,10,30.5,14.9
		C946.2,592.1,947.7,592.4,948.9,594"/>
	<path style="clip-path:url(#SVGID_00000159446888830839029500000008019481635471432632_);fill:#E20415;" d="M533.3,633.6V628
		c0-44.8,0-89.7,0-134.5c0-5.6,0-5.6,5.8-5.6c21.5,0,43-0.1,64.5,0c8.5,0,16.9,1.1,25.1,3.5c15.9,4.7,24.9,15.3,27.4,31.5
		c1.3,8.3,1.2,16.7-0.8,24.8c-4.1,17.2-16.1,26-32.7,29.8c-12.7,2.9-25.5,1.6-38.3,1.9c-6.5,0.1-5.5-0.4-5.6,5.7
		c0,14.7-0.1,29.3,0.1,44c0,3.5-0.9,4.5-4.4,4.4C560.9,633.5,547.4,633.6,533.3,633.6 M578.8,534.1c0,3.7,0.1,7.3,0,11
		c-0.1,2.2,0.8,2.9,2.9,2.9c6.2-0.1,12.3,0.1,18.5-0.3c7.9-0.5,12.4-5.2,12.8-12.7c0.4-7.5-3.9-13.2-11.4-14.6
		c-6.8-1.3-13.6-0.5-20.4-0.7c-2.2-0.1-2.3,1.2-2.3,2.9C578.8,526.4,578.8,530.2,578.8,534.1"/>
	<path style="clip-path:url(#SVGID_00000159446888830839029500000008019481635471432632_);fill:#211717;" d="M371.6,53.5
		c5.1-4.7,10.8-8.4,17.3-11.1c0,2.8,0.1,5.7,0.1,8.5c0,131.5,0,263,0,394.5c0,2.5,0,5,0,7.8h-17.4V53.5z"/>
	<path style="clip-path:url(#SVGID_00000159446888830839029500000008019481635471432632_);fill:#E20415;" d="M146.4,632.8
		c0-32.4,0-64.6,0-96.7c0-14.5,0.1-29-0.1-43.5c0-3.7,0.9-4.9,4.7-4.8c12.2,0.3,24.3,0.2,36.5,0c3.1,0,4.3,0.7,4.3,4.1
		c-0.1,45.8-0.1,91.6-0.1,137.4c0,2.3,0.3,4.2-3.2,4.1c-13.7-0.2-27.3-0.1-41-0.1C147.3,633.4,147,633.1,146.4,632.8"/>
	<path style="clip-path:url(#SVGID_00000159446888830839029500000008019481635471432632_);fill:#251B1A;" d="M360.5,236.3
		c-27.8,18.4-48.9,42.2-62,72.7c-5.6,13-6.3,26.8-3.9,40.7c1.4,8.1,6.2,12.7,14.1,15c18.8,5.4,33.1,16.7,40.3,35.1
		c8.4,21.5,0.6,38.8-16.1,52.7c-1.1,0.9-2.3,1.1-3.7,1.1c-22.1,0-44.3,0-66.4,0c-0.3-1.9,1.3-2.3,2.1-3.1
		c8.3-7.7,16.7-15.3,24.9-23.1c1.8-1.7,3.3-2.5,6.1-2c10.1,1.9,18.3-1.7,22.3-9.1c4.5-8.5,3-18.9-4-26.3c-4-4.3-8.9-7.5-13.9-10.5
		c-5.1-3.1-10.3-6.1-15.4-9.2c-8.1-4.8-11.7-12.3-13.1-21.3c-2.3-14.9,1.4-28.7,7.3-42.2c10.9-24.6,28.3-43.7,50.3-58.8
		c7.8-5.3,16.5-8.6,25.5-11.2C356.5,236.2,358.4,235.8,360.5,236.3"/>
	<path style="clip-path:url(#SVGID_00000159446888830839029500000008019481635471432632_);fill:#251B1B;" d="M556.6,448.5
		c-5.2-4.9-10.1-9.5-15.7-14.8v19.5h-16.8c-0.8-1.5-0.5-3.1-0.5-4.5c0-24.7,0-49.3-0.1-74c0-3.1,0.9-5.2,3.2-7.3
		c7.6-6.5,14.9-13.3,22.5-20.1c7.8,7.2,15.5,14.3,23.3,21.4c1.3,1.2,1.3,2.6,1.3,4.1c0,19.2,0,38.3,0,57.5c0,1.5,0,2.9-1.3,4
		C567.3,438.9,562.1,443.6,556.6,448.5 M556,372.8h-15v53.7h15V372.8z"/>
	<path style="clip-path:url(#SVGID_00000159446888830839029500000008019481635471432632_);fill:#251B1B;" d="M488.2,347.4
		c7.7,7.1,15,13.9,22.4,20.6c1.6,1.5,2.2,3,2.2,5.2c-0.1,16.8-0.1,33.6,0,50.5c0,1.9-0.2,3.4-1.7,4.9c-8.2,8.3-16.3,16.6-25,25.5
		c-7.9-8-15.4-15.5-22.8-23.1c-1.2-1.2-0.9-2.8-0.9-4.3c0-17.7,0-35.3,0-53c0-2.1,0.3-3.8,2-5.3
		C472.3,361.7,480.1,354.6,488.2,347.4 M479.5,426.4h15.1v-53.8h-15.1V426.4z"/>
	<path style="clip-path:url(#SVGID_00000159446888830839029500000008019481635471432632_);fill:#261C1B;" d="M602.7,411.3v18h30.9
		c0.2,0.3,0.4,0.7,0.6,1c-8.3,7.7-16.6,15.3-25.3,23.3c-7.7-7-15.2-13.9-22.9-20.8c-1.2-1.1-1-2.4-1-3.7c0-18.5,0-37,0-55.4
		c0-2,0.5-3.4,2-4.8c7.5-6.8,14.9-13.7,22.8-21c8.4,7.9,16.6,15.8,25.6,24.3h-32.8c0,6.3,0,12,0,17.7c0,3.1,2.2,2.3,3.9,2.3
		c9.1,0.1,18.3,0,27.6,0v19H602.7z"/>
	<path style="clip-path:url(#SVGID_00000159446888830839029500000008019481635471432632_);fill:#251B1B;" d="M645.6,372.5
		c6.9-7.9,14.9-14.7,22.3-22.5c7.7,7.1,15.1,14.1,22.5,20.9c1.1,1,1.4,2.1,1.4,3.5c-0.1,5.7-0.1,11.3,0,17c0.1,2.5-0.9,3.2-3.2,3
		c-4.5-0.3-10.1,1.8-13-0.8c-2.8-2.4-0.8-8.2-0.9-12.4c-0.1-7,0-7-7.3-7c-1.8,0-3.6,0-5.6,0v55.1c0.5,0.2,0.7,0.5,1,0.5
		c11.5,0.4,11.5,0.4,11.5-11.1c0-2.6,0-5.3,0-8.2h17.4c0,5.9,0,11.7,0,17.5c0,1.5-0.7,2.4-1.7,3.4c-7.7,7.4-15.4,14.8-23.4,22.5
		c-7.2-6.8-14.7-13-21.1-20.3c1.6-1.3,1.1-3,1.1-4.6c0-17.3,0-34.6,0-51.8C646.7,375.5,647.1,373.8,645.6,372.5"/>
	<path style="clip-path:url(#SVGID_00000159446888830839029500000008019481635471432632_);fill:#E00818;" d="M310.4,306
		c7.9,14.9,16.9,28,27.6,40c6.2,7,12.7,13.6,20,19.5c2.5,2,3.4,4.1,3.3,7.2c-0.2,4.9-0.1,9.9-0.1,15.7c-7.3-4.7-13.1-9.8-18.9-15
		c-14.3-12.9-26.5-27.6-37-43.7c-2-3-2.4-5.6-1.1-8.8C306,316.2,307.5,311.2,310.4,306"/>
	<path style="clip-path:url(#SVGID_00000159446888830839029500000008019481635471432632_);fill:#2A2321;" d="M530.4,241.8
		c-2.7,2.1-5.3,3.4-9,1.8c-2-0.9-4.6-0.7-6.9-0.9c-1.3-0.1-2.9,0.5-3.4-1.2c-0.6-1.8,1.1-2.6,2.3-3.4c2.5-1.6,5.1-3.1,6.9-5.6
		c0.5-0.7,1-1.3,0.7-2.5c-4.8-0.1-7.6,6-13,4.4c-0.5-3,1.4-4.5,3.3-6.2c1.9-1.7,4.9-3.5,1.1-6.6c-2-1.7,1.9-2.8,1.3-4.7
		c-0.9-1.4-3-0.3-3.9-1.8c0.8-5.8,6-3.9,9.2-5.2c0.2-0.5,0.4-0.8,0.4-1.1c0.1-1.5-2.7-3.1-0.4-4.3c2.1-1.1,2.2,1.9,3.4,2.6
		c4.5,2.9,1.7,8,3.5,11.6c2.8-0.1,2.2-4.5,5.3-3.8c1.5,1.6,0.3,3.2-0.5,4c-4.8,5-2.4,9.6,0.4,14.3c1,1.6,2.5,3.1-0.5,4.1
		c-0.9,0.3-0.5,1.1-0.3,1.6c0.3,0.9,0.9,0.9,1.9,0.9c4.1,0.1,5.5-2.2,5.8-5.8c0.4-4.7-0.9-9.2-1.2-13.8c-0.3-5.4-0.6-10.9-1.6-16.3
		c-0.6-3.1-2-4.7-5.3-4.6c-3.7,0.1-7.3,0.3-10.6,2.2c-0.8,0.5-1.8,0.9-2.8,1.1c-1.7,0.4-4,1.8-4.9-0.3c-1.1-2.6,1.9-2.9,3.5-3.7
		c1.3-0.7,2.9-1,4-1.9c6.1-4.7,13-2.9,19.6-2.3c2.8,0.3,3,2.7,3.3,4.9c0.9,7.3,0.6,14.7,2.1,21.9c1.8,8.5-2.1,15.7-4.7,23.3
		c-0.5,1.5-1.8,2.9-3.7,3c-2.3,0.2-2.6-1.5-3-3.2C532.5,243.1,531.5,242.4,530.4,241.8 M518.1,226.8c3.1-1.3,2.5,1.4,2.7,3.1
		c5.2-2.9,0-6.7,2.1-10.4c-3.5,1.7-4.4,4.4-5.9,6.4c-0.4,0.4-1.3,0.9-0.9,1.4C516.9,228,517.6,227.4,518.1,226.8 M525,230.2
		c-1.3,2.3-3.3,4.1-4,8.2c2.8-1.7,4.9-2.9,7.7-1.9C527.3,234.2,527.1,231.9,525,230.2"/>
	<path style="clip-path:url(#SVGID_00000159446888830839029500000008019481635471432632_);fill:#27201E;" d="M476.4,228.1
		c-1.3-0.8-4,0.7-4.7-2.1c-0.6-2.5,1.3-3.5,2.9-4.7c3.1-2.4,4.2-5.5,2.9-9.8c-6,1.8-10,5.5-12.2,11.3c-0.6,1.7-0.1,4.7-3.2,3.9
		c-2.6-0.7-4.7-3.8-3.9-5.7c1.5-3.9,1.5-8.2,3.7-11.8c0.1-0.1,0.2-0.3,0.2-0.4c1-1.6,2.4-3.2,4.3-2.9c2.4,0.3,0.8,2.8,1.7,4.5
		c2.4-1.6,4.7-3.4,7.2-4.8c2.6-1.4,3.5-3.3,3.4-6.1c-0.2-4-0.2-8-0.2-12c0-1.5,0-3.1,0.5-4.4c0.5-1.3,1.3-3,3.1-2.7
		c2,0.3,1.8,2,1.6,3.6c-0.3,4.5-0.5,8.9-0.8,13.4c-0.2,3.5,1,5,4.6,3.7c2.4-0.9,4.9-1,7.4-0.7c2.4,0.2,5.5-0.1,5.7,3.4
		c0.1,3.2-1.6,5.7-4.6,6.8c-1.6,0.5-3.1,1.1-4.4,2.2c-2.4,1.9-4.3,3.7-1.4,6.9c2,2.3,1,4-1.9,4.5c-1.3,0.2-2.7,0.1-4,0.4
		c-2.2,0.4-3.9,1.5-3.2,4.1c0.5,2.1-0.6,4-0.2,5.9c1.9,9-1.3,17.9,0.1,26.9c0.1,0.9-0.1,2-0.4,2.9c-0.3,0.8-1,1.3-1.9,1.3
		c-0.9,0-1.7-0.5-1.8-1.4c-0.2-1.5-0.4-3-0.4-4.4C476.4,249.3,476.4,238.8,476.4,228.1"/>
	<path style="clip-path:url(#SVGID_00000159446888830839029500000008019481635471432632_);fill:#2A2321;" d="M533.5,277
		c-1.7-3.1,0.1-4.3,1.1-5.7c4.4-6.1,8.8-12.1,13-18.3c7.8-11.6,12.9-24.3,16.3-37.8c1-3.8,3.1-6,7.3-7c-0.3,3.9-2,6.9-3.2,10
		c-1.8,4.7-1,4.4,3.8,5.5c7,1.5,12.1-1.6,17.6-4.5c1.2-0.6,2.4-1.5,3.6-0.1c1.3,1.4,1.2,3,0.3,4.6c-1.7,3-4.9,5-5.5,8.6
		c0.3,0.4,0.5,0.8,0.7,0.9c1.6,0.8,4.8-0.5,4.6,2.4c-0.1,2.3-2.9,2.5-4.7,2.9c-2.3,0.5-4.3,1.7-6.5,2.4c-1.7,0.5-3.4,0.4-4.3-1.3
		c-0.8-1.6-0.1-2.9,1-4c1.3-1.3,2.9-2.3,3.3-4.6c-3.3-2.1-6.7-0.5-9.9,0.1c-2.1,0.4-0.7,2.4-0.3,3.8c0.6,2.6-1.4,6.6-3.8,6.4
		c-2.4-0.2-6.5,1.5-6.3-4.9C552.9,251.1,546.1,265.8,533.5,277"/>
	<path style="clip-path:url(#SVGID_00000159446888830839029500000008019481635471432632_);fill:#2A2321;" d="M629,219.9
		c-1.8-1-3.8,0.2-5-1.5c0-1.4,1.2-2.1,2.1-2.5c3.7-1.6,5.9-3.4,5-8.3c-0.6-3.2,2.9-4.3,5.6-5.3c3,4.5,3.9,4.6,8.2,0
		c2.7-2.9,5.4-4.1,9.7-1.5c-4.4,4.7-8.3,9.6-13.7,12.3c-6,3-5,7.9-5.1,12.8c-0.1,4.5,3.8,5.2,6.5,6.5c8,3.7,22.1-0.7,26.9-8
		c0.8-1.2,1.2-2.5,0.9-3.8c-1.5-5.8,0.4-11.6-0.3-17.4c-0.2-1.5-0.6-3.9,1.7-4c2.9,0,1.9,2.5,1.8,4.2c-0.4,4.6,0.1,9,2.5,13
		c1.1,1.8,0.8,3.5-0.2,5.1c-8.6,13.8-25,20.4-41.2,16.4c-3.3-0.8-6-2.5-5.5-7C629.4,227.5,629,223.8,629,219.9"/>
	<path style="clip-path:url(#SVGID_00000159446888830839029500000008019481635471432632_);fill:#D12932;" d="M351.7,633.3
		c0-35.1,0.1-70.3,0.1-105.4c0-11.2-0.2-22.3,0.1-33.5c0.1-4.1-1.3-5.1-5.1-5c-11,0.2-22,0.3-33,0c-4.4-0.1-5.2,1.5-5.2,5.5
		c0.2,21,0.1,42,0.1,63c0,0.7,0.1,1.3,0,2c-0.2,1.9,0.8,4.8-1.5,5.2c-2.7,0.4-3-2.5-3.3-4.6c0.9,0.9,1.7,1.9,3.1,3.4
		c0.1-2.3,0.3-4,0.3-5.8c0-21.8,0.1-43.7-0.1-65.5c0-4.1,1.2-5.1,5.1-5c12.3,0.2,24.7,0.2,37,0c3.5,0,4.5,1.1,4.5,4.6
		c-0.1,45.7-0.1,91.3-0.1,137C353.6,630.7,354.8,633.1,351.7,633.3"/>
	<path style="clip-path:url(#SVGID_00000159446888830839029500000008019481635471432632_);fill:#2A2321;" d="M624.7,199.5
		c-1.5,2.2-3.5,3.9-5.6,5.5c-4.1,3.1-4.4,6.1-2.5,10.7c2.2,5.4,2.1,11.4,1,17.1c-0.6,3-6.1,5.6-9,4.7c-2.3-0.7-2.3-1.9-0.4-3.4
		c5.3-4.3,5.4-10,4.2-16c-2.2,0-2.6,1.7-3.5,2.7c-0.9,1-1.6,2.4-3,2.5c-2.4,0.1-5.7,1.5-6.8-1.2c-1-2.6,2.4-2.7,4.2-3.8
		c4.4-2.6,7.2-6.8,10-10.9c1.4-2,2.4-4.4,3.9-6.4C619.3,198.1,621.5,197.7,624.7,199.5"/>
	<path style="clip-path:url(#SVGID_00000159446888830839029500000008019481635471432632_);fill:#D12932;" d="M261.9,491.5
		c-2-1.3-3.9-2.1-6.5-2.1c-12,0.2-24,0.1-36,0c-3.2,0-4.8,0.6-4.8,4.3c0.1,46.5,0.1,93,0.2,139.5c-2-0.5-1.1-2.2-1.1-3.3
		c0-46.1,0-92.2-0.1-138.2c0-3,0.8-4,3.9-4c13,0.1,25.9,0.1,38.9,0C259.4,487.7,261.3,488.5,261.9,491.5"/>
	<path style="clip-path:url(#SVGID_00000159446888830839029500000008019481635471432632_);fill:#27201E;" d="M564.1,200.8
		c6.9-4.1,14.8-3.5,22.3-5.2c1.1-0.2,2.4-0.3,3,1.1c0.5,1.2-0.1,2.2-0.8,3.2c-1.8,2.7-4.3,4.7-7.5,5.2
		C569.8,207,568.8,207.8,564.1,200.8"/>
	<path style="clip-path:url(#SVGID_00000159446888830839029500000008019481635471432632_);fill:#D12932;" d="M257.7,633.3
		c0-23.7,0.1-47.5,0.1-71.2c0-1.3,0-2.7,0.1-4c0.1-1.2,0.6-2.4,2.1-2.4c1.9,0,1.8,1.6,1.7,2.9c-0.7-0.1-1.6-1.9-2.1,0
		c-0.4,1.4-0.2,3-0.2,4.5c0,21.8,0,43.6-0.1,65.4C259.3,630.1,260.8,632.5,257.7,633.3"/>
	<path style="clip-path:url(#SVGID_00000159446888830839029500000008019481635471432632_);fill:#2A2321;" d="M504.9,210.4
		c1.3,1,1.7,1.6,1.7,2.5c0.1,7.1,0.5,14.3-0.7,21.4c-0.3,1.5-0.7,2.9-1.5,4.2c-0.8,1.1-1.8,2.2-3.3,1.8c-1.4-0.4-1.2-1.8-1.2-2.9
		c-0.1-2.8-0.5-5.5,1.3-8.1c1.6-2.4,1.1-5.4,1.3-8.3C502.7,217.4,502.1,213.7,504.9,210.4"/>
	<path style="clip-path:url(#SVGID_00000159446888830839029500000008019481635471432632_);fill:#46413F;" d="M645.6,372.5
		c1.5,1.3,1,3.1,1,4.7c0,17.3,0,34.6,0,51.8c0,1.6,0.5,3.4-1.1,4.6c-0.2-0.5-0.5-0.9-0.5-1.4c0-19.5,0-39,0-58.5
		C645.1,373.4,645.4,372.9,645.6,372.5"/>
	<path style="clip-path:url(#SVGID_00000159446888830839029500000008019481635471432632_);fill:#2A2321;" d="M529.7,209
		c-1.8-0.3-2.3-1.7-3.3-2.5c-1.2-0.9-2.5-2.2-0.8-3.6c1.5-1.2,3.3-0.6,4.3,0.9C531,205.4,531.3,207.1,529.7,209"/>
	<path style="clip-path:url(#SVGID_00000159446888830839029500000008019481635471432632_);fill:#D12932;" d="M275.4,581
		c4.2,3.7,7.2,8.1,8.4,13.7C280.5,590.4,277.7,585.8,275.4,581"/>
	<path style="clip-path:url(#SVGID_00000159446888830839029500000008019481635471432632_);fill:#D12932;" d="M264.8,563.6
		c2.5,1.9,5.2,3.6,4.5,7.4C267.3,568.7,265.7,566.4,264.8,563.6"/>
	<path style="clip-path:url(#SVGID_00000159446888830839029500000008019481635471432632_);fill:#D12932;" d="M310.8,633.3
		c3.3-1.2,6.7-1.2,10,0C317.5,633.7,314.1,633.7,310.8,633.3"/>
	<path style="clip-path:url(#SVGID_00000159446888830839029500000008019481635471432632_);fill:#D12932;" d="M294.7,612.6
		c2.9,0.5,3,2.7,3.1,5C296.2,616.3,295.4,614.5,294.7,612.6"/>
	<path style="clip-path:url(#SVGID_00000159446888830839029500000008019481635471432632_);fill:#D12932;" d="M261.7,558.6
		c2.1,1,3.3,2.6,3,5C263.4,562.2,262.2,560.6,261.7,558.6"/>
	<path style="clip-path:url(#SVGID_00000159446888830839029500000008019481635471432632_);fill:#D12932;" d="M283.7,594.6
		c2.1,1,3.3,2.6,3,5C285.4,598.2,284.3,596.6,283.7,594.6"/>
	<path style="clip-path:url(#SVGID_00000159446888830839029500000008019481635471432632_);fill:#D12932;" d="M286.8,599.6
		c2.1,1,3.3,2.6,3.1,5C288.3,603.2,287.3,601.5,286.8,599.6"/>
	<path style="clip-path:url(#SVGID_00000159446888830839029500000008019481635471432632_);fill:#D12932;" d="M291.7,607.6
		c2.2,1,3.4,2.6,3,5C293.3,611.2,292.3,609.6,291.7,607.6"/>
	<path style="clip-path:url(#SVGID_00000159446888830839029500000008019481635471432632_);fill:#D12932;" d="M297.8,617.6
		c2.1,1,3.3,2.6,3,5C299.4,621.2,298.3,619.5,297.8,617.6"/>
	<path style="clip-path:url(#SVGID_00000159446888830839029500000008019481635471432632_);fill:#D12932;" d="M272.7,576.6
		c2.8,0.3,2.2,2.6,2.7,4.3C274,579.8,273.2,578.3,272.7,576.6"/>
	<path style="clip-path:url(#SVGID_00000159446888830839029500000008019481635471432632_);fill:#D12932;" d="M302.7,625.6
		c2.8,0.3,2.2,2.6,2.6,4.4C304,628.8,303.1,627.4,302.7,625.6"/>
	<path style="clip-path:url(#SVGID_00000159446888830839029500000008019481635471432632_);fill:#D12932;" d="M302.8,558.6
		c-2.1-0.1-2-1.7-1.9-3.2C302,556.2,302.5,557.3,302.8,558.6"/>
	<path style="clip-path:url(#SVGID_00000159446888830839029500000008019481635471432632_);fill:#D12932;" d="M305.3,630.1
		c2,0.1,2,1.9,2.6,3.2C306.1,632.9,305.8,631.4,305.3,630.1"/>
	<path style="clip-path:url(#SVGID_00000159446888830839029500000008019481635471432632_);fill:#D12932;" d="M270.8,573.5
		c2.1,0.2,2,1.6,1.9,3.1C271.6,575.9,271.1,574.8,270.8,573.5"/>
	<path style="clip-path:url(#SVGID_00000159446888830839029500000008019481635471432632_);fill:#D12932;" d="M289.8,604.6
		c1.4,0.6,2.1,1.6,1.9,3.1C290.6,606.9,290,605.9,289.8,604.6"/>
	<path style="clip-path:url(#SVGID_00000159446888830839029500000008019481635471432632_);fill:#D12932;" d="M300.8,622.6
		c1.4,0.6,2.1,1.6,1.9,3.1C301.6,624.9,301.1,623.9,300.8,622.6"/>
	<path style="clip-path:url(#SVGID_00000159446888830839029500000008019481635471432632_);fill:#D12932;" d="M269.3,571.1
		c2-0.1,1.4,1.4,1.5,2.4C269.8,573,269.6,572.1,269.3,571.1"/>
	<path style="clip-path:url(#SVGID_00000159446888830839029500000008019481635471432632_);fill:#D12932;" d="M303.9,560.5
		c-0.9-0.3-1.2-1-1.1-1.9C303.6,559,304,559.6,303.9,560.5"/>
	<path style="clip-path:url(#SVGID_00000159446888830839029500000008019481635471432632_);fill:#D12932;" d="M219.8,633.3
		c0.7-0.9,1.3-0.9,2,0C221.1,633.3,220.5,633.3,219.8,633.3"/>
</g>
</svg>
