<?xml version="1.0" encoding="utf-8"?>
<!-- Generator: Adobe Illustrator 25.4.0, SVG Export Plug-In . SVG Version: 6.00 Build 0)  -->
<svg version="1.1" id="Слой_1" xmlns="http://www.w3.org/2000/svg" xmlns:xlink="http://www.w3.org/1999/xlink" x="0px" y="0px"
	 viewBox="0 0 80 110" style="enable-background:new 0 0 80 110;" xml:space="preserve">
<style type="text/css">
	.st0{clip-path:url(#SVGID_00000113351505900249602820000016055967394888753572_);fill:#204985;}
	.st1{clip-path:url(#SVGID_00000113351505900249602820000016055967394888753572_);fill:#FFFFFF;}
	.st2{fill:#FFFFFF;}
</style>
<g>
	<defs>
		<rect id="SVGID_1_" width="80" height="110"/>
	</defs>
	<clipPath id="SVGID_00000035501728750115844800000000826462204777398947_">
		<use xlink:href="#SVGID_1_"  style="overflow:visible;"/>
	</clipPath>
	<path style="clip-path:url(#SVGID_00000035501728750115844800000000826462204777398947_);fill:#204985;" d="M74,110H6
		c-3.3,0-6-2.7-6-6V6c0-3.3,2.7-6,6-6h44.5L80,29.5V104C80,107.3,77.3,110,74,110"/>
	<path style="clip-path:url(#SVGID_00000035501728750115844800000000826462204777398947_);fill:#FFFFFF;" d="M56.5,29.5H80L50.5,0
		v23.5C50.5,26.8,53.2,29.5,56.5,29.5"/>
</g>
<g>
	<path class="st2" d="M29.1,65.9c0.9,0.4,1.6,1,2.1,1.8c0.5,0.8,0.7,1.7,0.7,2.7c0,1-0.2,1.9-0.7,2.7c-0.5,0.8-1.2,1.4-2.1,1.8
		c-0.9,0.4-2,0.6-3.2,0.6H23v3.9h-3.2v-14h6.1C27.1,65.3,28.2,65.5,29.1,65.9z M27.9,72.2c0.5-0.4,0.8-1,0.8-1.8
		c0-0.8-0.3-1.4-0.8-1.8c-0.5-0.4-1.2-0.6-2.2-0.6H23v4.9h2.6C26.6,72.8,27.4,72.6,27.9,72.2z"/>
	<path class="st2" d="M34.3,65.3h6.4c1.5,0,2.9,0.3,4,0.9s2.1,1.4,2.7,2.5c0.6,1.1,1,2.3,1,3.7s-0.3,2.6-1,3.7
		c-0.6,1.1-1.6,1.9-2.7,2.5s-2.5,0.9-4,0.9h-6.4V65.3z M40.5,76.6c1.4,0,2.5-0.4,3.3-1.2s1.2-1.8,1.2-3.2s-0.4-2.4-1.2-3.2
		s-2-1.2-3.3-1.2h-3v8.7H40.5z"/>
	<path class="st2" d="M54,67.9v3.7h6.5v2.6H54v5.1h-3.2v-14h10.6v2.6H54z"/>
</g>
</svg>
