<?xml version="1.0" encoding="utf-8"?>
<!-- Generator: Adobe Illustrator 25.4.0, SVG Export Plug-In . SVG Version: 6.00 Build 0)  -->
<svg version="1.1" id="Слой_1" xmlns="http://www.w3.org/2000/svg" xmlns:xlink="http://www.w3.org/1999/xlink" x="0px" y="0px"
	 viewBox="0 0 84 114" style="enable-background:new 0 0 84 114;" xml:space="preserve">
<style type="text/css">
	
		.st0{clip-path:url(#SVGID_00000024691141300775371460000013029539242614152612_);fill:none;stroke:#1F4986;stroke-width:4;stroke-miterlimit:10;}
	.st1{clip-path:url(#SVGID_00000024691141300775371460000013029539242614152612_);fill:#204985;}
</style>
<g>
	<defs>
		<rect id="SVGID_1_" width="84" height="114"/>
	</defs>
	<clipPath id="SVGID_00000111903359413872831740000014760115755901726911_">
		<use xlink:href="#SVGID_1_"  style="overflow:visible;"/>
	</clipPath>
	
		<path style="clip-path:url(#SVGID_00000111903359413872831740000014760115755901726911_);fill:none;stroke:#1F4986;stroke-width:4;stroke-miterlimit:10;" d="
		M76,112H8c-3.3,0-6-2.7-6-6V8c0-3.3,2.7-6,6-6h44.5L82,31.5V106C82,109.3,79.3,112,76,112z"/>
	<path style="clip-path:url(#SVGID_00000111903359413872831740000014760115755901726911_);fill:#204985;" d="M58.5,31.5H82L52.5,2
		v23.5C52.5,28.8,55.2,31.5,58.5,31.5"/>
	<path style="clip-path:url(#SVGID_00000111903359413872831740000014760115755901726911_);fill:#204985;" d="M42,93.5
		c-3.9,0-7.3-1.3-10.1-4s-4.2-6-4.2-9.9V51.7c0-2.8,1-5.1,2.9-7.1c2-1.9,4.3-2.9,7.1-2.9c2.8,0,5.2,1,7.1,2.9
		c1.9,1.9,2.9,4.3,2.9,7.1v25.5c0,1.6-0.6,3-1.7,4.2c-1.1,1.1-2.5,1.7-4.1,1.7c-1.6,0-3-0.6-4.1-1.8c-1.1-1.2-1.7-2.7-1.7-4.4V51.5
		h2.6v25.6c0,1,0.3,1.8,0.9,2.4c0.6,0.7,1.4,1,2.3,1c0.9,0,1.7-0.3,2.3-1c0.6-0.6,0.9-1.4,0.9-2.3V51.7c0-2.1-0.7-3.8-2.2-5.2
		c-1.4-1.4-3.2-2.1-5.3-2.1c-2.1,0-3.8,0.7-5.3,2.1c-1.4,1.4-2.2,3.2-2.2,5.2v28c0,3.2,1.1,5.8,3.4,8c2.3,2.2,5,3.3,8.2,3.3
		c3.2,0,6-1.1,8.3-3.3c2.3-2.2,3.4-4.9,3.4-8.1v-28h2.6v27.9c0,3.9-1.4,7.3-4.2,10C49.3,92.1,45.9,93.5,42,93.5"/>
</g>
</svg>
