<svg xmlns="http://www.w3.org/2000/svg" width="358.25" height="287.245" viewBox="0 0 358.25 287.245">
  <defs>
    <style>
      .cls-1 {
        fill: #004585;
        fill-rule: evenodd;
      }
    </style>
  </defs>
  <path class="cls-1" d="M975.371,805.958A70.389,70.389,0,0,0,914.487,841.3l-2.869,5A70.429,70.429,0,0,0,856.2,880.443l-18.259-31.838,22.128-38.58H760.933l22.128,38.581L764.8,880.443A70.426,70.426,0,0,0,709.38,846.3l-2.871-5a70.384,70.384,0,0,0-60.883-35.337H631.367L764.809,1038.62,810.5,958.958l45.691,79.662,133.44-232.662H975.371ZM831.547,826.576l-12.635,22.029,37.277,65,13.7-23.882a53.943,53.943,0,0,1,31-24.709l-44.7,77.93L789.451,826.575h42.1Zm-80.435,63.147,13.7,23.881,27.764-48.412,8.413,14.669-36.179,63.082-44.674-77.894A53.923,53.923,0,0,1,751.112,889.723ZM856.189,1005.45L810.5,925.787l-45.689,79.663L661.223,824.843a53.941,53.941,0,0,1,31,24.71l2.887,5.033,69.7,121.528L810.5,896.446l45.691,79.668,72.586-126.562a53.95,53.95,0,0,1,31-24.709ZM810.5,751.365l5.3,15.3L831.931,767l-12.86,9.788,4.674,15.506L810.5,783.038l-13.247,9.253,4.673-15.506L789.065,767l16.134-.33Z" transform="translate(-631.375 -751.375)"/>
</svg>
